<svg width="103" height="15" viewBox="0 0 103 15" fill="none" xmlns="http://www.w3.org/2000/svg">
    <rect width="103" height="15.0538" fill="#010101"/>
    <path d="M5.85706 10.8649H3.36907C3.30998 10.8649 3.25309 10.8365 3.21589 10.7906C3.17869 10.7448 3.16337 10.6836 3.1765 10.6246L4.72576 3.32718C4.74545 3.23763 4.82642 3.16992 4.91832 3.16992H7.40632C7.4654 3.16992 7.52229 3.19832 7.55949 3.24418C7.59669 3.29005 7.61201 3.35121 7.59888 3.41018L6.04963 10.7098C6.02993 10.7994 5.94897 10.8671 5.85706 10.8671V10.8649ZM3.41502 10.6268H5.82424L7.35818 3.408H4.94896L3.41721 10.629L3.41502 10.6268Z" fill="#B9B9B9" stroke="#B9B9B9" stroke-width="0.411923" stroke-linejoin="round"/>
    <path d="M15.3551 10.8977H12.5192C12.4513 10.8977 12.3857 10.8583 12.3485 10.8015L10.6592 8.00576L10.0815 10.7382C10.0618 10.8278 9.98085 10.8955 9.88676 10.8955H7.37907C7.3178 10.8955 7.26309 10.8671 7.2237 10.8212C7.1865 10.7753 7.17119 10.7142 7.18432 10.6552L8.74889 3.32718C8.76858 3.23763 8.84955 3.16992 8.94364 3.16992H13.9328C15.4733 3.16992 16.5936 4.18776 16.5936 5.58129C16.5936 6.37853 16.3376 7.04908 15.8496 7.52087C15.3879 7.96863 14.7118 8.23947 13.8956 8.30718L15.517 10.5831C15.5608 10.6421 15.5652 10.7229 15.5323 10.7884C15.4995 10.854 15.4295 10.8955 15.3551 10.8955V10.8977ZM12.5432 10.6574H15.2785L13.6614 8.388C13.6198 8.33121 13.6133 8.25258 13.6439 8.18923C13.6746 8.12371 13.738 8.08221 13.8102 8.07784C15.4273 7.973 16.3551 7.06218 16.3551 5.58566C16.3551 4.32755 15.3376 3.41674 13.9328 3.41455H8.97646L7.43158 10.6574H9.85831L10.4513 7.85942C10.4688 7.7786 10.5323 7.71963 10.6132 7.70434C10.6942 7.68905 10.773 7.72618 10.8167 7.79608L12.5454 10.6596L12.5432 10.6574ZM12.2872 7.03597H10.8693C10.808 7.03597 10.7533 7.00976 10.7139 6.96171C10.6767 6.91584 10.6614 6.85468 10.6745 6.79571L11.0137 5.21216C11.0334 5.1226 11.1143 5.05489 11.2084 5.05489H12.7249C13.4076 5.05489 13.8168 5.38471 13.8168 5.93513C13.8168 7.03816 12.6658 7.03597 12.2872 7.03597ZM10.9196 6.79789H12.2894C13.4338 6.79789 13.5805 6.33702 13.5805 5.93513C13.5805 5.52232 13.2785 5.29516 12.7292 5.29516H11.2434L10.9196 6.80008V6.79789Z" fill="#B9B9B9" stroke="#B9B9B9" stroke-width="0.411923" stroke-linejoin="round"/>
    <path d="M24.7899 10.8964H21.5097C21.4244 10.8942 21.35 10.8418 21.3237 10.761L19.8642 6.5214L18.9627 10.7369C18.943 10.8265 18.862 10.8942 18.7679 10.8942H16.5644C16.5031 10.8942 16.4484 10.8658 16.4112 10.8199C16.374 10.7741 16.3587 10.7129 16.3718 10.6539L17.9276 3.35648C17.9473 3.26693 18.0283 3.19922 18.1224 3.19922H21.5076C21.5929 3.19922 21.6673 3.25601 21.6957 3.33682L23.0831 7.49993L23.9627 3.35867C23.9824 3.26911 24.0634 3.2014 24.1575 3.2014H26.3501C26.4113 3.2014 26.466 3.2298 26.5032 3.27567C26.5404 3.32153 26.5558 3.38269 26.5426 3.44167L24.9846 10.7369C24.9649 10.8265 24.884 10.8942 24.7899 10.8942V10.8964ZM21.5382 10.6583H24.757L26.2997 3.44385H24.1881L23.2844 7.69432C23.2669 7.78169 23.1925 7.84722 23.1028 7.85158C23.013 7.85814 22.9321 7.80353 22.9036 7.71616L21.4791 3.43948H18.153L16.6125 10.6539H18.7373L19.6629 6.33137C19.6804 6.24401 19.7548 6.18066 19.8445 6.17411C19.9364 6.16974 20.0152 6.22216 20.0436 6.30735L21.5404 10.6539L21.5382 10.6583Z" fill="#B9B9B9" stroke="#B9B9B9" stroke-width="0.411923" stroke-linejoin="round"/>
    <path d="M31.1863 10.8964H26.3613C26.3 10.8942 26.2453 10.868 26.2081 10.8221C26.1709 10.7762 26.1556 10.7151 26.1687 10.6561L27.7223 3.35648C27.742 3.26693 27.823 3.19922 27.9149 3.19922H32.497C34.4576 3.19922 35.1557 4.22143 35.1557 5.17374C35.1557 5.95132 34.7049 6.52359 33.9128 6.7573C34.4554 7.06964 34.7399 7.62224 34.7399 8.35832C34.7399 9.92221 33.3788 10.8942 31.1863 10.892V10.8964ZM26.4094 10.6561H31.1863C32.1425 10.6561 32.9543 10.4639 33.5386 10.097C34.1775 9.69287 34.5036 9.10969 34.5036 8.36051C34.5036 7.67903 34.2323 7.18103 33.718 6.9233C33.6436 6.88616 33.602 6.80753 33.6108 6.72453C33.6196 6.64153 33.6786 6.57382 33.7574 6.55416C34.5058 6.36632 34.9193 5.87706 34.9193 5.17593C34.9193 4.10567 33.9915 3.44167 32.497 3.43948H27.9455L26.4072 10.6561H26.4094ZM30.7705 9.15993H29.3285C29.2672 9.15993 29.2125 9.13372 29.1753 9.08566C29.1381 9.03761 29.1228 8.97864 29.1359 8.91966L29.4007 7.70524C29.4204 7.61569 29.5013 7.55016 29.5932 7.55016H31.1447C31.9893 7.55016 32.1666 7.95861 32.1666 8.29935C32.1666 8.87379 31.6961 9.16429 30.7705 9.16429V9.15993ZM29.3766 8.92185H30.7705C31.9281 8.92185 31.9281 8.45224 31.9281 8.29498C31.9281 8.16829 31.9281 7.78606 31.1425 7.78606H29.6217L29.3744 8.92185H29.3766ZM31.3482 6.41219H29.9149C29.8536 6.41219 29.7989 6.38598 29.7617 6.33793C29.7245 6.29206 29.7092 6.2309 29.7223 6.17193L29.9543 5.09511C29.974 5.00556 30.055 4.93785 30.1469 4.93785H31.5933C32.1731 4.93785 32.4664 5.16719 32.4664 5.62151C32.4664 5.9819 32.2716 6.41219 31.3482 6.41219ZM29.9652 6.17411H31.3504C32.2322 6.17411 32.2322 5.75911 32.2322 5.62369C32.2322 5.40309 32.1578 5.17811 31.5976 5.17811H30.1819L29.9652 6.1763V6.17411Z" fill="#B9B9B9" stroke="#B9B9B9" stroke-width="0.411923" stroke-linejoin="round"/>
    <path d="M39.8534 10.8964H37.1466C37.0875 10.8964 37.0307 10.868 36.9935 10.8221C36.9563 10.7762 36.9409 10.7151 36.9519 10.6561L37.4464 8.3059L35.3676 3.47661C35.3414 3.41546 35.3479 3.34556 35.3829 3.28877C35.4201 3.23417 35.4814 3.19922 35.5492 3.19922H38.2232C38.3042 3.19922 38.3764 3.24946 38.407 3.32372L39.4246 5.83774L41.5077 3.27567C41.5471 3.2298 41.6018 3.20359 41.6609 3.20359H44.5647C44.6434 3.20359 44.7113 3.24946 44.7441 3.32153C44.7769 3.39361 44.766 3.47443 44.7135 3.5334L40.5515 8.34958L40.0482 10.7391C40.0285 10.8308 39.9475 10.8964 39.8556 10.8964H39.8534ZM37.1948 10.6583H39.8206L40.3195 8.29279C40.3261 8.26003 40.3414 8.22945 40.3633 8.20324L44.4771 3.44385H41.6806L39.5668 6.04306C39.523 6.09766 39.4552 6.12387 39.383 6.11295C39.313 6.10203 39.2561 6.05835 39.2298 5.99064L38.1948 3.43948H35.6061L37.6696 8.22508C37.6849 8.26222 37.6893 8.30372 37.6806 8.34522L37.1948 10.6583Z" fill="#B9B9B9" stroke="#B9B9B9" stroke-width="0.411923" stroke-linejoin="round"/>
    <mask id="path-7-inside-1_13524_907" fill="white">
        <path d="M49.1276 7.72808L48.0506 8.80419L47.5888 8.3421L48.6658 7.26599L47.5781 6.17934L48.1102 5.64551L49.1979 6.73216L50.2748 5.65606L50.7367 6.11815L49.6597 7.19425L50.7474 8.28091L50.2152 8.81474L49.1276 7.72808Z"/>
    </mask>
    <path d="M49.1276 7.72808L48.0506 8.80419L47.5888 8.3421L48.6658 7.26599L47.5781 6.17934L48.1102 5.64551L49.1979 6.73216L50.2748 5.65606L50.7367 6.11815L49.6597 7.19425L50.7474 8.28091L50.2152 8.81474L49.1276 7.72808Z" fill="#B9B9B9"/>
    <path d="M49.1276 7.72808L49.7746 7.08052L49.1276 6.43409L48.4806 7.08055L49.1276 7.72808ZM48.0506 8.80419L47.4032 9.45131L48.0502 10.0986L48.6976 9.45173L48.0506 8.80419ZM47.5888 8.3421L46.9418 7.69456L46.2941 8.34168L46.9413 8.98921L47.5888 8.3421ZM48.6658 7.26599L49.3128 7.91353L49.9609 7.26597L49.3127 6.61843L48.6658 7.26599ZM47.5781 6.17934L46.9298 5.53311L46.2843 6.18068L46.9311 6.8269L47.5781 6.17934ZM48.1102 5.64551L48.7572 4.99794L48.1089 4.3502L47.4619 4.99928L48.1102 5.64551ZM49.1979 6.73216L48.5509 7.37973L49.1979 8.02616L49.8449 7.3797L49.1979 6.73216ZM50.2748 5.65606L50.9223 5.00894L50.2753 4.36162L49.6278 5.00852L50.2748 5.65606ZM50.7367 6.11815L51.3837 6.76569L52.0314 6.11857L51.3841 5.47103L50.7367 6.11815ZM49.6597 7.19425L49.0127 6.54671L48.3646 7.19428L49.0127 7.84182L49.6597 7.19425ZM50.7474 8.28091L51.3957 8.92713L52.0411 8.27957L51.3943 7.63334L50.7474 8.28091ZM50.2152 8.81474L49.5683 9.4623L50.2166 10.11L50.8636 9.46096L50.2152 8.81474ZM49.1276 7.72808L48.4806 7.08055L47.4036 8.15665L48.0506 8.80419L48.6976 9.45173L49.7746 8.37562L49.1276 7.72808ZM48.0506 8.80419L48.6981 8.15707L48.2362 7.69498L47.5888 8.3421L46.9413 8.98921L47.4032 9.45131L48.0506 8.80419ZM47.5888 8.3421L48.2358 8.98964L49.3128 7.91353L48.6658 7.26599L48.0187 6.61845L46.9418 7.69456L47.5888 8.3421ZM48.6658 7.26599L49.3127 6.61843L48.2251 5.53178L47.5781 6.17934L46.9311 6.8269L48.0188 7.91356L48.6658 7.26599ZM47.5781 6.17934L48.2264 6.82557L48.7586 6.29173L48.1102 5.64551L47.4619 4.99928L46.9298 5.53311L47.5781 6.17934ZM48.1102 5.64551L47.4632 6.29307L48.5509 7.37973L49.1979 6.73216L49.8448 6.0846L48.7572 4.99794L48.1102 5.64551ZM49.1979 6.73216L49.8449 7.3797L50.9219 6.3036L50.2748 5.65606L49.6278 5.00852L48.5508 6.08462L49.1979 6.73216ZM50.2748 5.65606L49.6274 6.30318L50.0893 6.76527L50.7367 6.11815L51.3841 5.47103L50.9223 5.00894L50.2748 5.65606ZM50.7367 6.11815L50.0897 5.47061L49.0127 6.54671L49.6597 7.19425L50.3067 7.84179L51.3837 6.76569L50.7367 6.11815ZM49.6597 7.19425L49.0127 7.84182L50.1004 8.92847L50.7474 8.28091L51.3943 7.63334L50.3067 6.54669L49.6597 7.19425ZM50.7474 8.28091L50.099 7.63468L49.5669 8.16851L50.2152 8.81474L50.8636 9.46096L51.3957 8.92713L50.7474 8.28091ZM50.2152 8.81474L50.8622 8.16717L49.7746 7.08052L49.1276 7.72808L48.4806 8.37565L49.5683 9.4623L50.2152 8.81474Z" fill="#B9B9B9" mask="url(#path-7-inside-1_13524_907)"/>
    <path d="M55.6172 8.33836L56.6807 8.34679C56.4312 10.1662 60.2212 10.4567 60.2321 8.77053C60.2321 8.1655 59.8492 7.81603 59.0614 7.65658C57.6632 7.44689 55.8841 7.04063 55.9892 5.32166C55.9629 2.47127 61.5232 2.50403 61.4006 5.53353H60.3372C60.2912 4.64455 59.5188 4.1116 58.5932 4.1531C56.9126 4.05263 56.4356 6.06429 58.0724 6.35042L59.2627 6.58413C62.3241 7.02534 61.7507 11.0836 58.5406 10.839C56.7857 10.839 55.6697 9.98931 55.6172 8.3446V8.33836Z" fill="#B9B9B9" stroke="#B9B9B9" stroke-width="0.274615" stroke-miterlimit="10"/>
    <path d="M66.9277 8.82614H63.3762L62.6322 10.7373H61.5469L64.4922 3.30664H65.8533L68.7767 10.7351H67.6717L66.9277 8.82395V8.82614ZM66.5557 7.87164L65.153 4.28517L63.7504 7.87164H66.5579H66.5557Z" fill="#B9B9B9" stroke="#B9B9B9" stroke-width="0.274615" stroke-miterlimit="10"/>
    <path d="M69.7656 3.30664H70.8291V9.78064H75.188V10.7351H69.7656V3.30664Z" fill="#B9B9B9" stroke="#B9B9B9" stroke-width="0.274615" stroke-miterlimit="10"/>
    <path d="M81.4511 8.82614H77.8997L77.1557 10.7373H76.0703L79.0178 3.30664H80.3789L83.3024 10.7351H82.1973L81.4533 8.82395L81.4511 8.82614ZM81.0791 7.87164L79.6765 4.28517L78.2738 7.87164H81.0813H81.0791Z" fill="#B9B9B9" stroke="#B9B9B9" stroke-width="0.274615" stroke-miterlimit="10"/>
    <path d="M89.2589 3.30664L86.3355 10.7351H84.9525L81.9766 3.30664H83.1035L85.6768 9.76971L88.1429 3.30664H89.2589Z" fill="#B9B9B9" stroke="#B9B9B9" stroke-width="0.274615" stroke-miterlimit="10"/>
    <path d="M93.2324 8.82614H89.6809L88.9369 10.7373H87.8516L90.7969 3.30664H92.158L95.0814 10.7351H93.9764L93.2324 8.82395V8.82614ZM92.8604 7.87164L91.4577 4.28517L90.0551 7.87164H92.8626H92.8604Z" fill="#B9B9B9" stroke="#B9B9B9" stroke-width="0.274615" stroke-miterlimit="10"/>
    <path d="M96.2759 4.26332H93.6172V3.30664H99.9958V4.26114H97.3371V10.7351H96.2737V4.26332H96.2759Z" fill="#B9B9B9" stroke="#B9B9B9" stroke-width="0.274615" stroke-miterlimit="10"/>
</svg>
