<svg width="117" height="10" viewBox="0 0 117 10" fill="none" xmlns="http://www.w3.org/2000/svg">
    <g clip-path="url(#clip0_13119_1585)">
        <rect width="117" height="10" fill="black"/>
        <path d="M4.2396 9.87451H1.23791C1.16663 9.87451 1.09798 9.83833 1.0531 9.77988C1.00822 9.72144 0.989744 9.64351 1.00558 9.56836L2.87471 0.269726C2.89847 0.155615 2.99615 0.0693359 3.10703 0.0693359H6.10873C6.18001 0.0693359 6.24865 0.105517 6.29353 0.163964C6.33841 0.222411 6.35689 0.300341 6.34105 0.375487L4.47192 9.67691C4.44816 9.79102 4.35048 9.8773 4.2396 9.8773V9.87451ZM1.29335 9.57115H4.2L6.05065 0.372704H3.14399L1.29599 9.57393L1.29335 9.57115Z" fill="#B9B9B9" stroke="#B9B9B9" stroke-width="0.5" stroke-linejoin="round"/>
        <path d="M15.7071 9.91626H12.2857C12.2038 9.91626 12.1246 9.86616 12.0798 9.7938L10.0417 6.23132L9.34471 9.71309C9.32095 9.8272 9.22327 9.91348 9.10975 9.91348H6.0843C6.01038 9.91348 5.94438 9.8773 5.89685 9.81885C5.85197 9.7604 5.83349 9.68247 5.84933 9.60733L7.73694 0.269726C7.7607 0.155615 7.85838 0.0693359 7.9719 0.0693359H13.9911C15.8497 0.0693359 17.2014 1.3663 17.2014 3.14198C17.2014 4.15784 16.8925 5.01228 16.3038 5.61345C15.7467 6.184 14.931 6.52912 13.9462 6.6154L15.9025 9.51548C15.9553 9.59063 15.9606 9.69361 15.921 9.7771C15.8814 9.8606 15.7969 9.91348 15.7071 9.91348V9.91626ZM12.3147 9.61011H15.6147L13.6638 6.71838C13.6136 6.64601 13.6057 6.54582 13.6426 6.46511C13.6796 6.38161 13.7562 6.32873 13.8433 6.32316C15.7943 6.18957 16.9136 5.02898 16.9136 3.14754C16.9136 1.54443 15.686 0.383836 13.9911 0.381053H8.0115L6.14766 9.61011H9.07543L9.79087 6.04484C9.81199 5.94187 9.88855 5.86672 9.98623 5.84724C10.0839 5.82775 10.179 5.87507 10.2318 5.96413L12.3174 9.61289L12.3147 9.61011ZM12.0058 4.99558H10.2951C10.2212 4.99558 10.1552 4.96218 10.1077 4.90095C10.0628 4.84251 10.0443 4.76458 10.0602 4.68943L10.4694 2.67162C10.4931 2.55751 10.5908 2.47123 10.7043 2.47123H12.5338C13.3575 2.47123 13.8512 2.89149 13.8512 3.59285C13.8512 4.99836 12.4626 4.99558 12.0058 4.99558ZM10.3558 4.69221H12.0085C13.3892 4.69221 13.5661 4.10496 13.5661 3.59285C13.5661 3.06683 13.2018 2.77738 12.5391 2.77738H10.7466L10.3558 4.695V4.69221Z" fill="#B9B9B9" stroke="#B9B9B9" stroke-width="0.5" stroke-linejoin="round"/>
        <path d="M27.0914 9.91636H23.134C23.0311 9.91358 22.9413 9.84678 22.9096 9.7438L21.1487 4.34163L20.061 9.71319C20.0373 9.8273 19.9396 9.91358 19.8261 9.91358H17.1676C17.0937 9.91358 17.0277 9.87739 16.9828 9.81895C16.9379 9.7605 16.9194 9.68257 16.9353 9.60743L18.8123 0.308788C18.8361 0.194677 18.9338 0.108398 19.0473 0.108398H23.1314C23.2343 0.108398 23.3241 0.180761 23.3584 0.283739L25.0322 5.5885L26.0935 0.311571C26.1172 0.197461 26.2149 0.111182 26.3284 0.111182H28.9737C29.0476 0.111182 29.1136 0.147363 29.1585 0.20581C29.2034 0.264257 29.2219 0.342186 29.206 0.417333L27.3264 9.71319C27.3026 9.8273 27.2049 9.91358 27.0914 9.91358V9.91636ZM23.1683 9.61299H27.0518L28.913 0.420116H26.3654L25.2751 5.8362C25.2539 5.94753 25.1642 6.03103 25.0559 6.03659C24.9477 6.04494 24.85 5.97536 24.8157 5.86403L23.0971 0.414549H19.0842L17.2257 9.60743H19.7891L20.9058 4.09949C20.927 3.98816 21.0167 3.90745 21.125 3.8991C21.2358 3.89354 21.3309 3.96033 21.3652 4.06888L23.171 9.60743L23.1683 9.61299Z" fill="#B9B9B9" stroke="#B9B9B9" stroke-width="0.5" stroke-linejoin="round"/>
        <path d="M34.8013 9.91636H28.9801C28.9062 9.91358 28.8402 9.88018 28.7953 9.82173C28.7504 9.76328 28.7319 9.68535 28.7478 9.61021L30.6222 0.308788C30.6459 0.194677 30.7436 0.108398 30.8545 0.108398H36.3827C38.7481 0.108398 39.5903 1.41093 39.5903 2.6244C39.5903 3.61522 39.0465 4.34441 38.0908 4.64221C38.7455 5.04021 39.0887 5.74436 39.0887 6.68229C39.0887 8.67506 37.4466 9.91358 34.8013 9.91079V9.91636ZM29.0382 9.61021H34.8013C35.955 9.61021 36.9344 9.36529 37.6393 8.89771C38.4102 8.38282 38.8036 7.63971 38.8036 6.68508C38.8036 5.81672 38.4762 5.18215 37.8558 4.85374C37.766 4.80642 37.7159 4.70623 37.7264 4.60047C37.737 4.49471 37.8083 4.40843 37.9033 4.38338C38.8062 4.14402 39.3052 3.52059 39.3052 2.62718C39.3052 1.26342 38.1858 0.417333 36.3827 0.414549H30.8915L29.0355 9.61021H29.0382ZM34.2997 7.70372H32.5599C32.486 7.70372 32.42 7.67033 32.3751 7.6091C32.3303 7.54786 32.3118 7.47272 32.3276 7.39757L32.6471 5.85012C32.6708 5.73601 32.7685 5.65251 32.8794 5.65251H34.7512C35.7702 5.65251 35.984 6.17297 35.984 6.60715C35.984 7.33913 35.4164 7.70929 34.2997 7.70929V7.70372ZM32.618 7.40036H34.2997C35.6963 7.40036 35.6963 6.80197 35.6963 6.60158C35.6963 6.44016 35.6963 5.9531 34.7485 5.9531H32.9137L32.6154 7.40036H32.618ZM34.9967 4.20247H33.2675C33.1935 4.20247 33.1275 4.16907 33.0827 4.10784C33.0378 4.0494 33.0193 3.97147 33.0351 3.89632L33.315 2.52421C33.3387 2.4101 33.4364 2.32382 33.5473 2.32382H35.2924C35.992 2.32382 36.3457 2.61605 36.3457 3.19496C36.3457 3.65418 36.1108 4.20247 34.9967 4.20247ZM33.3282 3.8991H34.9993C36.0632 3.8991 36.0632 3.3703 36.0632 3.19774C36.0632 2.91664 35.9735 2.62997 35.2976 2.62997H33.5896L33.3282 3.90189V3.8991Z" fill="#B9B9B9" stroke="#B9B9B9" stroke-width="0.5" stroke-linejoin="round"/>
        <path d="M45.2595 9.91636H41.9938C41.9225 9.91636 41.8539 9.88018 41.809 9.82173C41.7641 9.76328 41.7457 9.68535 41.7589 9.61021L42.3555 6.6155L39.8475 0.461864C39.8158 0.383934 39.8237 0.294872 39.866 0.222509C39.9108 0.152929 39.9848 0.108398 40.0666 0.108398H43.2927C43.3904 0.108398 43.4775 0.172412 43.5145 0.26704L44.7421 3.47049L47.2554 0.20581C47.3029 0.147363 47.3689 0.113965 47.4402 0.113965H50.9434C51.0385 0.113965 51.1203 0.172412 51.1599 0.264257C51.1995 0.356102 51.1863 0.45908 51.123 0.534226L46.1017 6.67116L45.4945 9.71597C45.4707 9.83286 45.373 9.91636 45.2621 9.91636H45.2595ZM42.0519 9.61299H45.2199L45.8218 6.5988C45.8298 6.55705 45.8482 6.51808 45.8746 6.48469L50.8379 0.420116H47.4639L44.9137 3.73211C44.8609 3.80169 44.779 3.83509 44.6919 3.82117C44.6074 3.80726 44.5388 3.75159 44.5071 3.66531L43.2584 0.414549H40.1352L42.6248 6.51252C42.6433 6.55983 42.6485 6.61271 42.638 6.66559L42.0519 9.61299Z" fill="#B9B9B9" stroke="#B9B9B9" stroke-width="0.5" stroke-linejoin="round"/>
        <mask id="path-6-inside-1_13119_1585" fill="white">
            <path d="M56.9219 6.25384L55.5861 7.67327L55.0132 7.06375L56.349 5.64433L55 4.21098L55.66 3.50684L57.009 4.94018L58.3449 3.52075L58.9178 4.13027L57.5819 5.5497L58.931 6.98304L58.271 7.68719L56.9219 6.25384Z"/>
        </mask>
        <path d="M56.9219 6.25384L55.5861 7.67327L55.0132 7.06375L56.349 5.64433L55 4.21098L55.66 3.50684L57.009 4.94018L58.3449 3.52075L58.9178 4.13027L57.5819 5.5497L58.931 6.98304L58.271 7.68719L56.9219 6.25384Z" fill="#B9B9B9"/>
        <path d="M56.9219 6.25384L57.6501 5.56847L56.9219 4.79475L56.1937 5.5685L56.9219 6.25384ZM55.5861 7.67327L54.8574 8.35814L55.5856 9.1329L56.3143 8.35861L55.5861 7.67327ZM55.0132 7.06375L54.285 6.37841L53.6404 7.06331L54.2845 7.74862L55.0132 7.06375ZM56.349 5.64433L57.0773 6.32967L57.7223 5.6443L57.0772 4.95896L56.349 5.64433ZM55 4.21098L54.2704 3.52712L53.6281 4.2124L54.2718 4.89635L55 4.21098ZM55.66 3.50684L56.3882 2.82147L55.6585 2.04617L54.9304 2.82297L55.66 3.50684ZM57.009 4.94018L56.2809 5.62555L57.0091 6.39928L57.7373 5.62552L57.009 4.94018ZM58.3449 3.52075L59.0736 2.83588L58.3454 2.06112L57.6167 2.83541L58.3449 3.52075ZM58.9178 4.13027L59.646 4.81561L60.2906 4.13072L59.6464 3.4454L58.9178 4.13027ZM57.5819 5.5497L56.8537 4.86436L56.2087 5.54972L56.8537 6.23507L57.5819 5.5497ZM58.931 6.98304L59.6606 7.66691L60.3029 6.98163L59.6592 6.29767L58.931 6.98304ZM58.271 7.68719L57.5428 8.37256L58.2725 9.14785L59.0006 8.37105L58.271 7.68719ZM56.9219 6.25384L56.1937 5.5685L54.8579 6.98793L55.5861 7.67327L56.3143 8.35861L57.6501 6.93918L56.9219 6.25384ZM55.5861 7.67327L56.3147 6.9884L55.7419 6.37888L55.0132 7.06375L54.2845 7.74862L54.8574 8.35814L55.5861 7.67327ZM55.0132 7.06375L55.7414 7.74909L57.0773 6.32967L56.349 5.64433L55.6208 4.95898L54.285 6.37841L55.0132 7.06375ZM56.349 5.64433L57.0772 4.95896L55.7282 3.52561L55 4.21098L54.2718 4.89635L55.6209 6.32969L56.349 5.64433ZM55 4.21098L55.7296 4.89485L56.3896 4.1907L55.66 3.50684L54.9304 2.82297L54.2704 3.52712L55 4.21098ZM55.66 3.50684L54.9318 4.19221L56.2809 5.62555L57.009 4.94018L57.7372 4.25481L56.3882 2.82147L55.66 3.50684ZM57.009 4.94018L57.7373 5.62552L59.0731 4.20609L58.3449 3.52075L57.6167 2.83541L56.2808 4.25484L57.009 4.94018ZM58.3449 3.52075L57.6162 4.20562L58.1891 4.81514L58.9178 4.13027L59.6464 3.4454L59.0736 2.83588L58.3449 3.52075ZM58.9178 4.13027L58.1896 3.44493L56.8537 4.86436L57.5819 5.5497L58.3102 6.23504L59.646 4.81561L58.9178 4.13027ZM57.5819 5.5497L56.8537 6.23507L58.2028 7.66841L58.931 6.98304L59.6592 6.29767L58.3101 4.86433L57.5819 5.5497ZM58.931 6.98304L58.2014 6.29917L57.5414 7.00332L58.271 7.68719L59.0006 8.37105L59.6606 7.66691L58.931 6.98304ZM58.271 7.68719L58.9992 7.00182L57.6501 5.56847L56.9219 6.25384L56.1937 6.93921L57.5428 8.37256L58.271 7.68719Z" fill="#B9B9B9" mask="url(#path-6-inside-1_13119_1585)"/>
        <path d="M63.3125 6.65753L64.5955 6.66827C64.2946 8.98667 68.8671 9.35683 68.8803 7.20821C68.8803 6.43727 68.4183 5.99196 67.4679 5.78879C65.7809 5.5216 63.6346 5.00393 63.7613 2.81356C63.7296 -0.818506 70.4379 -0.776758 70.29 3.08353H69.007C68.9516 1.95077 68.0196 1.27167 66.9029 1.32455C64.8754 1.19652 64.2999 3.75984 66.2746 4.12444L67.7108 4.42224C71.4041 4.98444 70.7124 10.1556 66.8396 9.84389C64.7223 9.84389 63.3759 8.76123 63.3125 6.66549V6.65753Z" fill="#B9B9B9" stroke="#B9B9B9" stroke-width="0.2" stroke-miterlimit="10"/>
        <path d="M76.9605 7.27824H72.6758L71.7782 9.71353H70.4688L74.0222 0.245117H75.6643L79.1913 9.71074H77.8581L76.9605 7.27545V7.27824ZM76.5117 6.06198L74.8195 1.49199L73.1272 6.06198H76.5144H76.5117Z" fill="#B9B9B9" stroke="#B9B9B9" stroke-width="0.2" stroke-miterlimit="10"/>
        <path d="M80.3906 0.245117H81.6737V8.49449H86.9326V9.71074H80.3906V0.245117Z" fill="#B9B9B9" stroke="#B9B9B9" stroke-width="0.2" stroke-miterlimit="10"/>
        <path d="M94.484 7.27824H90.1992L89.3016 9.71353H87.9922L91.5483 0.245117H93.1904L96.7174 9.71074H95.3842L94.4866 7.27545L94.484 7.27824ZM94.0352 6.06198L92.3429 1.49199L90.6507 6.06198H94.0378H94.0352Z" fill="#B9B9B9" stroke="#B9B9B9" stroke-width="0.2" stroke-miterlimit="10"/>
        <path d="M103.903 0.245117L100.376 9.71074H98.7076L95.1172 0.245117H96.4768L99.5814 8.48057L102.557 0.245117H103.903Z" fill="#B9B9B9" stroke="#B9B9B9" stroke-width="0.2" stroke-miterlimit="10"/>
        <path d="M108.695 7.27824H104.41L103.513 9.71353H102.203L105.757 0.245117H107.399L110.926 9.71074H109.593L108.695 7.27545V7.27824ZM108.246 6.06198L106.554 1.49199L104.862 6.06198H108.249H108.246Z" fill="#B9B9B9" stroke="#B9B9B9" stroke-width="0.2" stroke-miterlimit="10"/>
        <path d="M112.379 1.46415H109.172V0.245117H116.868V1.46137H113.66V9.71074H112.377V1.46415H112.379Z" fill="#B9B9B9" stroke="#B9B9B9" stroke-width="0.2" stroke-miterlimit="10"/>
    </g>
    <defs>
        <clipPath id="clip0_13119_1585">
            <rect width="117" height="10" fill="white"/>
        </clipPath>
    </defs>
</svg>
