<svg width="129" height="25" viewBox="0 0 129 25" fill="none" xmlns="http://www.w3.org/2000/svg">
    <g clip-path="url(#clip0_271_365)">
        <path d="M9.17569 24.7266H1.4817C1.30055 24.7266 1.12946 24.6499 1.01373 24.5018C0.897988 24.3587 0.857732 24.1697 0.897988 23.9858L5.6583 1.21188C5.72371 0.936013 5.97028 0.726562 6.25711 0.726562H13.9511C14.1323 0.726562 14.3033 0.803191 14.4191 0.951339C14.5348 1.09438 14.5751 1.2834 14.5348 1.4673L9.75941 24.2412C9.70406 24.5324 9.44742 24.7317 9.17066 24.7317M1.6226 23.9909H9.07002L13.8052 1.4673H6.36278L1.62763 23.9858L1.6226 23.9909Z" fill="black"/>
        <path d="M9.17569 24.7266H1.4817C1.30055 24.7266 1.12946 24.6499 1.01373 24.5018C0.897988 24.3587 0.857732 24.1697 0.897988 23.9858L5.6583 1.21188C5.72371 0.936013 5.97028 0.726562 6.25711 0.726562H13.9511C14.1323 0.726562 14.3033 0.803191 14.4191 0.951339C14.5348 1.09438 14.5751 1.2834 14.5348 1.4673L9.75941 24.2412C9.70406 24.5324 9.44742 24.7317 9.17066 24.7317M1.6226 23.9909H9.07002L13.8052 1.4673H6.36278L1.62763 23.9858L1.6226 23.9909Z" stroke="black" stroke-width="0.2" stroke-linejoin="round"/>
        <path d="M38.3772 24.7264H29.6818C29.4705 24.7264 29.2792 24.6089 29.1585 24.4352L23.9704 15.7558L22.2092 24.236C22.1438 24.5118 21.8972 24.7264 21.6104 24.7264H13.9164C13.7353 24.7264 13.5642 24.6498 13.4434 24.5016C13.3277 24.3586 13.2874 24.1696 13.3277 23.9857L18.098 1.24237C18.1635 0.966512 18.41 0.751953 18.6969 0.751953H33.9943C38.7294 0.751953 42.1562 3.89372 42.1562 8.22577C42.1562 10.6983 41.3712 12.7826 39.8717 14.2488C38.4476 15.6485 36.3895 16.4812 33.8836 16.6906L38.8653 23.7558C38.9961 23.9397 39.0213 24.19 38.9156 24.3892C38.7999 24.5987 38.5885 24.7213 38.3671 24.7213M29.7321 23.9806H38.1155L33.1489 16.9256C33.018 16.7417 33.003 16.5016 33.0986 16.3075C33.1891 16.1083 33.3854 15.9755 33.6068 15.9499C38.5634 15.6179 41.4065 12.7928 41.4065 8.21044C41.4065 4.31262 38.2765 1.47226 33.9741 1.47226H18.7824L14.0624 23.9652H21.5098L23.3213 15.2705C23.3716 15.0202 23.5679 14.8362 23.8195 14.7954C24.0661 14.7545 24.3126 14.8618 24.4435 15.0866L29.7372 23.9754L29.7321 23.9806ZM28.9371 12.7417H24.5944C24.4133 12.7417 24.2422 12.66 24.1214 12.517C24.0057 12.3688 23.9654 12.1849 24.0057 12.001L25.0473 7.08656C25.1127 6.8107 25.3593 6.59614 25.6461 6.59614H30.3007C32.3991 6.59614 33.6521 7.61274 33.6521 9.319C33.6269 12.7417 30.0944 12.7417 28.932 12.7417M24.7303 12.001H28.932C32.4394 12.001 32.8973 10.5604 32.8973 9.319C32.8973 8.07762 31.9714 7.33688 30.2756 7.33688H25.7266L24.7353 11.9959L24.7303 12.001Z" fill="black"/>
        <path d="M38.3772 24.7264H29.6818C29.4705 24.7264 29.2792 24.6089 29.1585 24.4352L23.9704 15.7558L22.2092 24.236C22.1438 24.5118 21.8972 24.7264 21.6104 24.7264H13.9164C13.7353 24.7264 13.5642 24.6498 13.4434 24.5016C13.3277 24.3586 13.2874 24.1696 13.3277 23.9857L18.098 1.24237C18.1635 0.966512 18.41 0.751953 18.6969 0.751953H33.9943C38.7294 0.751953 42.1562 3.89372 42.1562 8.22577C42.1562 10.6983 41.3712 12.7826 39.8717 14.2488C38.4476 15.6485 36.3895 16.4812 33.8836 16.6906L38.8653 23.7558C38.9961 23.9397 39.0213 24.19 38.9156 24.3892C38.7999 24.5987 38.5885 24.7213 38.3671 24.7213M28.9371 12.7417H24.5944C24.4133 12.7417 24.2422 12.66 24.1214 12.517C24.0057 12.3688 23.9654 12.1849 24.0057 12.001L25.0473 7.08656C25.1127 6.8107 25.3593 6.59614 25.6461 6.59614H30.3007C32.3991 6.59614 33.6521 7.61274 33.6521 9.319C33.6269 12.7417 30.0944 12.7417 28.932 12.7417M29.7321 23.9806H38.1155L33.1489 16.9256C33.018 16.7417 33.003 16.5016 33.0986 16.3075C33.1891 16.1083 33.3854 15.9755 33.6068 15.9499C38.5634 15.6179 41.4065 12.7928 41.4065 8.21044C41.4065 4.31262 38.2765 1.47226 33.9741 1.47226H18.7824L14.0624 23.9652H21.5098L23.3213 15.2705C23.3716 15.0202 23.5679 14.8362 23.8195 14.7954C24.0661 14.7545 24.3126 14.8618 24.4435 15.0866L29.7372 23.9754L29.7321 23.9806ZM24.7303 12.001H28.932C32.4394 12.001 32.8973 10.5604 32.8973 9.319C32.8973 8.07762 31.9714 7.33688 30.2756 7.33688H25.7266L24.7353 11.9959L24.7303 12.001Z" stroke="black" stroke-width="0.2" stroke-linejoin="round"/>
        <path d="M67.4164 24.7264H57.3373C57.0756 24.7264 56.8441 24.5527 56.7636 24.3177L52.265 11.107L49.5024 24.236C49.437 24.5119 49.1904 24.7264 48.9036 24.7264H42.1204C41.9392 24.7264 41.7681 24.6498 41.6524 24.5016C41.5367 24.3586 41.4964 24.1696 41.5367 23.9857L46.307 1.24237C46.3724 0.966512 46.619 0.751953 46.9058 0.751953H57.3121C57.5738 0.751953 57.8052 0.920535 57.8858 1.17596L62.1479 14.1466L64.8501 1.2577C64.9155 0.981838 65.1621 0.767279 65.4489 0.767279H72.1919C72.373 0.767279 72.5441 0.843907 72.6598 0.992055C72.7756 1.13509 72.8158 1.32411 72.7756 1.50802L68.0052 24.2411C67.9498 24.5323 67.7033 24.7315 67.4164 24.7315M57.4127 23.9908H67.3108L72.0459 1.49269H65.5546L62.792 14.7443C62.7366 15.0202 62.5052 15.2194 62.2284 15.2347C61.9567 15.2603 61.7051 15.0763 61.6145 14.8107L57.2215 1.49269H46.9964L42.2764 23.9857H48.808L51.641 10.5144C51.6913 10.2385 51.9278 10.0393 52.1996 10.024C52.4864 10.0087 52.7229 10.167 52.8135 10.4327L57.4178 23.9857L57.4127 23.9908Z" fill="black"/>
        <path d="M67.4164 24.7264H57.3373C57.0756 24.7264 56.8441 24.5527 56.7636 24.3177L52.265 11.107L49.5024 24.236C49.437 24.5119 49.1904 24.7264 48.9036 24.7264H42.1204C41.9392 24.7264 41.7681 24.6498 41.6524 24.5016C41.5367 24.3586 41.4964 24.1696 41.5367 23.9857L46.307 1.24237C46.3724 0.966512 46.619 0.751953 46.9058 0.751953H57.3121C57.5738 0.751953 57.8052 0.920535 57.8858 1.17596L62.1479 14.1466L64.8501 1.2577C64.9155 0.981838 65.1621 0.767279 65.4489 0.767279H72.1919C72.373 0.767279 72.5441 0.843907 72.6598 0.992055C72.7756 1.13509 72.8158 1.32411 72.7756 1.50802L68.0052 24.2411C67.9498 24.5323 67.7033 24.7315 67.4164 24.7315M57.4127 23.9908H67.3108L72.0459 1.49269H65.5546L62.792 14.7443C62.7366 15.0202 62.5052 15.2194 62.2284 15.2347C61.9567 15.2603 61.7051 15.0763 61.6145 14.8107L57.2215 1.49269H46.9964L42.2764 23.9857H48.808L51.641 10.5144C51.6913 10.2385 51.9278 10.0393 52.1996 10.024C52.4864 10.0087 52.7229 10.167 52.8135 10.4327L57.4178 23.9857L57.4127 23.9908Z" stroke="black" stroke-width="0.2" stroke-linejoin="round"/>
        <path d="M87.0925 24.7264H72.2278C72.0466 24.7264 71.8756 24.6498 71.7598 24.5016C71.6441 24.3586 71.6038 24.1696 71.6441 23.9857L76.4145 1.24237C76.4799 0.966512 76.7264 0.751953 77.0133 0.751953H91.1382C97.1716 0.751953 99.3253 3.92437 99.3253 6.89244C99.3253 9.30878 97.9315 11.0917 95.4909 11.8222C97.1616 12.7877 98.0472 14.5144 98.0472 16.8133C98.0472 21.7021 93.8505 24.7264 87.0925 24.7264ZM72.3838 23.9857H87.1076C90.0563 23.9857 92.5572 23.3777 94.3587 22.2283C96.3262 20.9716 97.3327 19.153 97.3327 16.8235C97.3327 14.6983 96.4973 13.1504 94.9072 12.3433C94.6707 12.2258 94.5449 11.9857 94.5801 11.72C94.6053 11.4544 94.7915 11.2603 95.038 11.1938C97.3478 10.6115 98.6108 9.0789 98.6108 6.89755C98.6108 3.57188 95.7526 1.49269 91.1533 1.49269H77.1089L72.3888 23.9754L72.3838 23.9857ZM85.8143 19.3216H81.366C81.1848 19.3216 81.0137 19.2449 80.898 19.0968C80.7772 18.9537 80.742 18.7647 80.7772 18.5808L81.5874 14.7903C81.6528 14.5144 81.8994 14.2998 82.1862 14.2998H86.9717C89.5783 14.2998 90.1268 15.5668 90.1268 16.6242C90.1117 18.4071 88.6675 19.3164 85.8093 19.3164M81.522 18.5757H85.8244C89.3971 18.5757 89.3971 17.1096 89.3971 16.6191C89.3971 16.2207 89.3971 15.0355 86.9717 15.0355H82.2919L81.522 18.5757ZM87.5856 10.7443H83.1675C82.9863 10.7443 82.8152 10.6677 82.6995 10.5195C82.5837 10.3714 82.5435 10.1875 82.5837 10.0035L83.2983 6.64723C83.3637 6.37137 83.6103 6.16191 83.8971 6.16191H88.3555C90.1419 6.16191 91.0426 6.872 91.0426 8.28707C91.0325 9.41096 90.4287 10.7443 87.5856 10.7443ZM83.3235 10.0189H87.5856C90.2979 10.0189 90.2979 8.72641 90.2979 8.3024C90.2979 7.61274 90.0614 6.91287 88.3404 6.91287H83.9877L83.3235 10.0189Z" fill="black"/>
        <path d="M85.8143 19.3216H81.366C81.1848 19.3216 81.0137 19.2449 80.898 19.0968C80.7772 18.9537 80.742 18.7647 80.7772 18.5808L81.5874 14.7903C81.6528 14.5144 81.8994 14.2998 82.1862 14.2998H86.9717C89.5783 14.2998 90.1268 15.5668 90.1268 16.6242C90.1117 18.4071 88.6675 19.3164 85.8093 19.3164M87.0925 24.7264H72.2278C72.0466 24.7264 71.8756 24.6498 71.7598 24.5016C71.6441 24.3586 71.6038 24.1696 71.6441 23.9857L76.4145 1.24237C76.4799 0.966512 76.7264 0.751953 77.0133 0.751953H91.1382C97.1716 0.751953 99.3253 3.92437 99.3253 6.89244C99.3253 9.30878 97.9315 11.0917 95.4909 11.8222C97.1616 12.7877 98.0472 14.5144 98.0472 16.8133C98.0472 21.7021 93.8505 24.7264 87.0925 24.7264ZM72.3838 23.9857H87.1076C90.0563 23.9857 92.5572 23.3777 94.3587 22.2283C96.3262 20.9716 97.3327 19.153 97.3327 16.8235C97.3327 14.6983 96.4973 13.1504 94.9072 12.3433C94.6707 12.2258 94.5449 11.9857 94.5801 11.72C94.6053 11.4544 94.7915 11.2603 95.038 11.1938C97.3478 10.6115 98.6108 9.0789 98.6108 6.89755C98.6108 3.57188 95.7526 1.49269 91.1533 1.49269H77.1089L72.3888 23.9754L72.3838 23.9857ZM81.522 18.5757H85.8244C89.3971 18.5757 89.3971 17.1096 89.3971 16.6191C89.3971 16.2207 89.3971 15.0355 86.9717 15.0355H82.2919L81.522 18.5757ZM87.5856 10.7443H83.1675C82.9863 10.7443 82.8152 10.6677 82.6995 10.5195C82.5837 10.3714 82.5435 10.1875 82.5837 10.0035L83.2983 6.64723C83.3637 6.37136 83.6103 6.16191 83.8971 6.16191H88.3555C90.1419 6.16191 91.0426 6.872 91.0426 8.28707C91.0325 9.41096 90.4287 10.7443 87.5856 10.7443ZM83.3235 10.0189H87.5856C90.2979 10.0189 90.2979 8.72641 90.2979 8.3024C90.2979 7.61274 90.0614 6.91287 88.3404 6.91287H83.9877L83.3235 10.0189Z" stroke="black" stroke-width="0.2" stroke-linejoin="round"/>
        <path d="M113.762 24.7267H105.414C105.232 24.7267 105.061 24.6501 104.946 24.5019C104.83 24.3589 104.79 24.1699 104.83 23.986L106.355 16.6705L99.9136 1.62582C99.8381 1.44191 99.8482 1.21713 99.9639 1.04344C100.08 0.869749 100.266 0.767578 100.472 0.767578H108.715C108.961 0.767578 109.183 0.910618 109.273 1.15072L112.418 8.98724L118.849 0.992355C118.965 0.844206 119.136 0.767578 119.317 0.767578H128.274C128.511 0.767578 128.732 0.900401 128.823 1.12518C128.928 1.34995 128.888 1.60027 128.732 1.78418L115.9 16.8033L114.366 24.2414C114.3 24.5326 114.049 24.7318 113.767 24.7318M105.58 23.9911H113.676L115.201 16.6194C115.226 16.5121 115.266 16.4202 115.332 16.3436L128.002 1.49299H119.372L112.866 9.59005C112.725 9.75864 112.514 9.84037 112.307 9.81483C112.101 9.78929 111.915 9.64625 111.84 9.43169L108.644 1.49299H100.663L107.029 16.4049C107.084 16.5224 107.094 16.6552 107.069 16.7727L105.58 23.986V23.9911Z" fill="black"/>
        <path d="M113.762 24.7267H105.414C105.232 24.7267 105.061 24.6501 104.946 24.5019C104.83 24.3589 104.79 24.1699 104.83 23.986L106.355 16.6705L99.9136 1.62582C99.8381 1.44191 99.8482 1.21713 99.9639 1.04344C100.08 0.869749 100.266 0.767578 100.472 0.767578H108.715C108.961 0.767578 109.183 0.910618 109.273 1.15072L112.418 8.98724L118.849 0.992355C118.965 0.844206 119.136 0.767578 119.317 0.767578H128.274C128.511 0.767578 128.732 0.900401 128.823 1.12518C128.928 1.34995 128.888 1.60027 128.732 1.78418L115.9 16.8033L114.366 24.2414C114.3 24.5326 114.049 24.7318 113.767 24.7318M105.58 23.9911H113.676L115.201 16.6194C115.226 16.5121 115.266 16.4202 115.332 16.3436L128.002 1.49299H119.372L112.866 9.59005C112.725 9.75864 112.514 9.84037 112.307 9.81483C112.101 9.78929 111.915 9.64625 111.84 9.43169L108.644 1.49299H100.663L107.029 16.4049C107.084 16.5224 107.094 16.6552 107.069 16.7727L105.58 23.986V23.9911Z" stroke="black" stroke-width="0.2" stroke-linejoin="round"/>
    </g>
    <defs>
        <clipPath id="clip0_271_365">
            <rect width="128" height="24" fill="white" transform="translate(0.882812 0.726562)"/>
        </clipPath>
    </defs>
</svg>
